<svg width="167" height="167" viewBox="0 0 167 167" fill="none" xmlns="http://www.w3.org/2000/svg">
<mask id="mask0_158_8" style="mask-type:alpha" maskUnits="userSpaceOnUse" x="0" y="0" width="167" height="167">
<path fill-rule="evenodd" clip-rule="evenodd" d="M83.3333 0C37.3083 0 0 37.3083 0 83.3333C0 129.358 37.3083 166.667 83.3333 166.667C129.358 166.667 166.667 129.358 166.667 83.3333C166.667 37.3083 129.358 0 83.3333 0ZM54.1667 62.5C54.1667 58.6698 54.9211 54.8771 56.3868 51.3384C57.8526 47.7997 60.001 44.5844 62.7094 41.8761C65.4178 39.1677 68.6331 37.0193 72.1717 35.5535C75.7104 34.0878 79.5031 33.3333 83.3333 33.3333C87.1636 33.3333 90.9563 34.0878 94.4949 35.5535C98.0336 37.0193 101.249 39.1677 103.957 41.8761C106.666 44.5844 108.814 47.7997 110.28 51.3384C111.746 54.8771 112.5 58.6698 112.5 62.5C112.5 70.2355 109.427 77.6541 103.957 83.124C98.4875 88.5938 91.0688 91.6667 83.3333 91.6667C75.5979 91.6667 68.1792 88.5938 62.7094 83.124C57.2396 77.6541 54.1667 70.2355 54.1667 62.5ZM135.483 124.867C129.245 132.714 121.315 139.05 112.285 143.402C103.254 147.754 93.3576 150.009 83.3333 150C73.3091 150.009 63.4122 147.754 54.3819 143.402C45.3517 139.05 37.4214 132.714 31.1833 124.867C44.6917 115.175 63.125 108.333 83.3333 108.333C103.542 108.333 121.975 115.175 135.483 124.867Z" fill="#333333"/>
</mask>
<g mask="url(#mask0_158_8)">
<rect x="-31.6667" y="-19.6665" width="230" height="216" fill="url(#paint0_linear_158_8)"/>
</g>
<defs>
<linearGradient id="paint0_linear_158_8" x1="83.3333" y1="-19.6665" x2="83.3333" y2="196.333" gradientUnits="userSpaceOnUse">
<stop stop-color="#0066FF"/>
<stop offset="1" stop-color="#8BBAFF"/>
</linearGradient>
</defs>
</svg>
